<?xml version="1.0" encoding="UTF-8" standalone="no"?>
<!-- Created with Inkscape (http://www.inkscape.org/) -->

<svg
   width="210mm"
   height="297mm"
   viewBox="0 0 210 297"
   version="1.1"
   id="svg1"
   xml:space="preserve"
   inkscape:version="1.3 (0e150ed6c4, 2023-07-21)"
   sodipodi:docname="worldmap_sweden.svg"
   inkscape:export-filename="worldmap_sweden.png"
   inkscape:export-xdpi="96"
   inkscape:export-ydpi="96"
   xmlns:inkscape="http://www.inkscape.org/namespaces/inkscape"
   xmlns:sodipodi="http://sodipodi.sourceforge.net/DTD/sodipodi-0.dtd"
   xmlns="http://www.w3.org/2000/svg"
   xmlns:svg="http://www.w3.org/2000/svg"><sodipodi:namedview
     id="namedview1"
     pagecolor="#ffffff"
     bordercolor="#000000"
     borderopacity="0.25"
     inkscape:showpageshadow="2"
     inkscape:pageopacity="0.0"
     inkscape:pagecheckerboard="0"
     inkscape:deskcolor="#d1d1d1"
     inkscape:document-units="mm"
     inkscape:zoom="0.70110129"
     inkscape:cx="480.67234"
     inkscape:cy="544.85708"
     inkscape:window-width="1920"
     inkscape:window-height="1001"
     inkscape:window-x="-9"
     inkscape:window-y="-9"
     inkscape:window-maximized="1"
     inkscape:current-layer="g1" /><defs
     id="defs1"><style
       id="style1">.cls-1{fill:#2e2e2e;}.cls-2{fill:#da49e2;}</style></defs><g
     inkscape:label="Layer 1"
     inkscape:groupmode="layer"
     id="layer1"><g
       id="g1"
       transform="matrix(0.26458333,0,0,0.26458333,-76.476296,28.183335)"><g
         id="sFFT8b.tif"
         transform="matrix(5.1372412,0,0,5.1964958,-2627.9821,-721.88688)"><path
           class="cls-1"
           d="m 680.55,248.44 c 0.61,2.59 -0.46,4.77 -3.12,6.27 -2,1.14 -2.83,2.83 -3.11,5.26 a 10.51,10.51 0 0 1 -5.51,7.82 10.48,10.48 0 0 0 -5.17,11.36 c 0.39,1.56 1.84,3 3.12,4.16 3.27,2.92 3.86,4.25 0.69,7.29 a 12.69,12.69 0 0 0 -4,11.59 c 0.26,2.06 -0.57,3.32 -2.5,4.32 a 16.56,16.56 0 0 0 -4.41,3.66 c -1.36,1.49 -2.54,1.32 -2.81,-0.43 -0.74,-4.8 -3.53,-8.51 -5.78,-12.57 a 5.05,5.05 0 0 1 0.08,-4.49 c 3.48,-4.62 3.52,-9.91 3.66,-15.23 0.08,-2.66 0.07,-5.33 0.2,-8 0.06,-1.13 0,-2.74 0.67,-3.31 3.41,-2.86 3.13,-6.8 3.32,-10.53 a 12.09,12.09 0 0 1 2.39,-6.9 c 2.19,-2.94 4.14,-6.05 6.35,-9 2.33,-3.07 4,-3.37 7.62,-1.77 a 13.91,13.91 0 0 0 1.39,0.56 c 5.86,1.88 6.77,3.13 6.92,9.94 z"
           id="path39"
           transform="translate(-2.5,-96.22)" /><path
           class="cls-1"
           d="m 695.76,231.93 a 32.49,32.49 0 0 1 -3.55,-4 c -1.17,-1.84 -2.39,-2 -4.11,-0.94 -2.1,1.32 -4.42,2.32 -4.71,5.33 -0.22,2.13 -1.57,2.08 -3.29,1.39 a 38.88,38.88 0 0 0 -5.25,-1.48 c -0.8,-0.2 -1.87,-0.57 -2.41,-0.22 a 81.48,81.48 0 0 0 -9.57,6.74 c -1.82,1.6 -2.8,4.11 -4.36,6.05 -3.35,4.2 -5.51,8.6 -5.12,14.2 0.09,1.34 -0.44,3.3 -1.41,4 -2.57,2 -2.45,4.51 -2.45,7.17 0,3.83 -0.14,7.66 0,11.48 a 11.65,11.65 0 0 1 -3.12,8.8 c -1,-1.45 -1.78,-3.45 -3.71,-0.63 a 31.94,31.94 0 0 1 -6.18,6.44 c -2.5,2 -5.22,1.7 -6.29,-0.95 -2.59,-6.35 -4.25,-12.94 -2.1,-19.82 0.33,-1.05 1.08,-2.61 1.85,-2.75 3.58,-0.64 5,-3.15 6.6,-6 1.28,-2.2 3.12,-4.82 6.8,-3 0.89,0.45 2.83,-0.42 3.79,-1.26 0.41,-0.35 -0.49,-2.15 -0.71,-3.32 -0.14,-0.8 -0.46,-1.82 -0.13,-2.43 2.29,-4.21 4.64,-8.38 7.16,-12.46 1.36,-2.2 3.09,-4.17 4.66,-6.24 0.29,-0.39 0.91,-0.78 0.87,-1.12 -0.39,-4.29 3.22,-5.81 5.83,-7.27 2.86,-1.6 6.91,-1.1 8.31,-5.22 a 7.34,7.34 0 0 1 3.44,0.87 c 1.93,1.44 2.95,1.33 4.32,-0.8 1.67,-2.6 11.64,-3.33 13.88,-1.32 0.12,0.11 0.34,0.2 0.35,0.32 0.26,2.77 0.5,5.54 0.75,8.31 z"
           transform="translate(-2.5,-96.22)"
           id="path47" /><path
           class="cls-1"
           d="m 672.78,235.38 c 3.2,-1.48 5.77,-0.35 8.21,1 2,1.13 3.45,1.31 4,-1.39 0.55,-2.7 1.38,-6.09 4.31,-5.87 2.93,0.22 3.14,4.08 4.47,6.47 2.36,4.21 2.51,8.86 3.76,13.28 1.3,4.61 3.57,8.93 5.42,13.38 a 32.43,32.43 0 0 0 1.4,3.19 6.87,6.87 0 0 1 -0.67,8.32 c -1.14,1.42 -1.65,3.59 -3,4.5 -5.1,3.35 -11.14,5 -16.93,5.92 -4.45,0.72 -8.77,-7.67 -7.24,-12.73 a 16,16 0 0 1 3,-5.07 c 2,-2.46 4.2,-4.72 6.33,-7.05 1.8,-2 1.74,-4.2 -0.23,-5.67 -2.39,-1.77 -2.55,-4 -2.68,-6.55 a 12.56,12.56 0 0 0 -0.81,-4.38 c -1.42,-3.15 -2.7,-6.61 -7.29,-6.23 -0.72,0.06 -1.4,-0.72 -2.05,-1.12 z"
           transform="translate(-2.5,-96.22)"
           id="path48" /><path
           class="cls-1"
           d="m 658.5,332.94 c -1.7,1 -3.81,2.23 -5.91,3.49 -1.89,1.14 -1.94,2.5 -0.39,4 1,0.92 2,1.78 2.85,2.77 1.94,2.16 1.87,3.19 -0.87,4.47 -3.08,1.44 -6.33,3.18 -9.57,3.33 -2.06,0.1 -4.89,-2 -6.22,-4 -2.24,-3.23 -3.44,-7.15 -5.31,-10.67 -1,-1.93 -0.93,-3.95 0.5,-5 2.72,-2 2.63,-4.35 2,-7 -0.39,-1.63 -0.27,-2.61 1.66,-3.42 1.77,-0.74 3,-3.17 4.7,-3.56 1.7,-0.39 3.64,1.16 5.54,1.46 1,0.17 2.21,-0.57 3.35,-0.73 3.91,-0.53 6.3,1.48 6.66,5.43 0.27,3.08 0.65,6.13 1.01,9.43 z"
           transform="translate(-2.5,-96.22)"
           id="path62" /><path
           class="cls-1"
           d="m 659.2,322 a 12.45,12.45 0 0 1 1.52,-2.69 c 2.27,-2.63 5.37,-3.81 8.66,-4.57 0.45,-0.1 1.25,-0.22 1.38,0 2.61,4.05 6.66,1.9 10,2.24 4.59,0.46 6.47,2.14 6.81,6.68 a 26.43,26.43 0 0 0 1.3,7.27 c 1.16,3.07 0.26,5.51 -1.32,7.95 -0.35,0.54 -0.93,1.33 -1.39,1.32 -4.31,-0.09 -8.72,2.32 -13,-0.68 a 93.65,93.65 0 0 0 -9.27,-5.83 c -4.42,-2.43 -4,-6.81 -4.69,-11.69 z"
           transform="translate(-2.5,-96.22)"
           id="path64" /><path
           class="cls-1"
           d="m 590.82,339.08 8.53,-5.52 -4.72,-2.46 c 1.57,-2.78 1.62,-6.11 5.17,-7.94 2.67,-1.39 1.16,-7.85 -1.92,-8.34 -3.08,-0.49 -4,-1.87 -3.8,-4.64 0,-0.64 0.09,-1.66 -0.28,-1.9 -3.78,-2.53 -0.68,-5.33 -0.23,-7.87 0.45,-2.54 2.53,-4.17 5.1,-4.88 0.11,0 0.28,0.12 0.71,0.33 a 6.24,6.24 0 0 1 -0.29,1.67 c -1.07,2.25 -0.55,3.65 2.07,3.6 3.21,-0.05 3.36,1.21 2.65,4 -0.47,1.9 0.16,4.3 0.89,6.25 a 70.23,70.23 0 0 0 4.5,9.43 10,10 0 0 0 3.15,3 c 3.35,2.31 3.62,3.3 1.5,6.65 a 6.06,6.06 0 0 0 -0.9,1.7 c -0.83,3.53 -1.87,4.84 -4.87,4.08 -4.17,-1.05 -7.43,0.62 -10.94,2.15 -1.8,0.78 -3.63,2.53 -6.32,0.69 z"
           transform="translate(-2.5,-96.22)"
           id="path73" /><path
           class="cls-1"
           d="m 677.91,314.36 c 0.11,-1.53 0.3,-3 0.3,-4.43 0,-1.43 0.49,-2.55 2.15,-2.74 a 2.34,2.34 0 0 0 1.38,-0.48 c 4.33,-4.88 8.3,-2.06 12.21,0.59 2.73,1.84 2.9,3.07 1.17,5.73 -2.83,4.34 -4.28,4.52 -9.34,2.5 -2.34,-0.93 -5.11,-0.79 -7.87,-1.17 z"
           transform="translate(-2.5,-96.22)"
           id="path116" /><path
           class="cls-1"
           d="m 579.49,330.79 a 13.8,13.8 0 0 1 -3.16,-0.54 c -1.17,-0.56 -2.09,-1.81 -0.6,-2.61 3.13,-1.7 4.16,-3.86 3.06,-7.28 -0.15,-0.5 1.64,-2.29 2,-2.15 1.66,0.68 2.78,-3.16 4.57,-0.4 a 7,7 0 0 0 2.8,2 c 1.19,0.59 3.33,0 2.82,2.46 -0.42,2 0.07,4.45 -2.72,5.36 -3.16,1.03 -6.26,2.24 -8.77,3.16 z"
           transform="translate(-2.5,-96.22)"
           id="path129" /><path
           class="cls-1"
           d="m 653.93,338.48 c 5.35,-4.45 12.07,-3.79 16.5,1.59 0.36,0.43 0.71,1.47 0.51,1.67 -1.15,1.12 -2.89,3.2 -3.65,2.91 -4.49,-1.72 -10.68,0.24 -13.36,-6.17 z"
           transform="translate(-2.5,-96.22)"
           id="path143" /><path
           class="cls-1"
           d="m 642,298.83 c 2.41,3.89 3.44,6.37 1.23,9.39 -0.76,1 -0.53,2.79 -0.89,4.19 -0.18,0.71 -0.65,1.9 -1,1.9 a 3.54,3.54 0 0 1 -2.5,-0.92 8.16,8.16 0 0 1 0.08,-10.08 c 0.94,-1.31 1.8,-2.67 3.08,-4.48 z"
           transform="translate(-2.5,-96.22)"
           id="path165" /><path
           class="cls-1"
           d="m 691.14,288.84 c 4.91,0.05 7,2.65 6,6.21 -0.15,0.55 -0.87,1.43 -1.16,1.37 a 48,48 0 0 1 -8.88,-2.29 c -1.55,-0.65 -1.43,-2.69 0.16,-3.66 a 21.26,21.26 0 0 1 3.88,-1.63 z"
           transform="translate(-2.5,-96.22)"
           id="path167" /><path
           class="cls-1"
           d="m 691.44,298.15 c 3.78,0.57 7.13,1 8.52,4.75 0.93,2.52 -0.33,4.46 -2.65,3.57 a 35.16,35.16 0 0 1 -7.56,-4.53 c -0.52,-0.37 -0.64,-2 -0.29,-2.69 0.35,-0.69 1.54,-0.87 1.98,-1.1 z"
           transform="translate(-2.5,-96.22)"
           id="path170" /><path
           class="cls-1"
           d="m 629.6,333.14 -6.33,-2.35 c 1.23,-1.05 2.24,-2.55 2.92,-2.41 2.64,0.54 2.8,-0.73 2.65,-2.71 -0.15,-1.98 1.53,-2.69 2.91,-2.49 0.72,0.11 1.56,1.85 1.68,2.93 a 5.87,5.87 0 0 1 -1.14,3 c -0.71,1.3 -1.6,2.45 -2.69,4.03 z"
           transform="translate(-2.5,-96.22)"
           id="path178" /><path
           class="cls-1"
           d="m 621.94,333.61 c 4.56,-0.16 7.26,2.15 9.85,4.58 0.33,0.31 0.3,1.19 0.17,1.74 -0.05,0.22 -1,0.51 -1.26,0.34 -3.01,-1.74 -6.35,-3.1 -8.76,-6.66 z"
           transform="translate(-2.5,-96.22)"
           id="path194" /><path
           class="cls-1"
           d="m 588.89,312 3.34,4.15 c -0.89,0.59 -1.94,1.81 -2.62,1.63 a 5.58,5.58 0 0 1 -3,-2.39 c -0.26,-0.39 1.1,-1.74 2.28,-3.39 z"
           transform="translate(-2.5,-96.22)"
           id="path208" /><path
           class="cls-1"
           d="m 684.25,302 c -2.09,1.4 -3.56,2.49 -5.15,3.33 -0.27,0.14 -1.11,-0.83 -1.69,-1.28 a 44.49,44.49 0 0 1 3.9,-3.87 c 0.22,-0.18 1.41,0.87 2.94,1.82 z"
           transform="translate(-2.5,-96.22)"
           id="path214" /><path
           class="cls-1"
           d="m 650.14,312.61 a 5.1,5.1 0 0 1 -1.85,0.49 6.82,6.82 0 0 1 -1.91,-1 c 0.34,-0.49 0.65,-1.36 1,-1.4 a 5.18,5.18 0 0 1 2,0.69 z"
           transform="translate(-2.5,-96.22)"
           id="path252" /></g><circle
         class="cls-2 marker-portugal"
         cx="804.01361"
         cy="285.09317"
         id="circle276"
         style="fill:#d40000;stroke-width:1.76472"
         r="30.882521" /><circle
         class="cls-2 marker-france"
         cx="732.05969"
         cy="378.37109"
         id="circle276-6-4"
         style="fill:#ff9955;stroke-width:1.76472"
         r="30.882521" /><circle
         class="cls-2 marker-france"
         cx="654.79443"
         cy="555.03943"
         id="circle276-6-4-3"
         style="fill:#ff6600;stroke-width:1.76472"
         r="30.882521" /><circle
         class="cls-2 marker-france"
         cx="484.43857"
         cy="499.39987"
         id="circle276-6-4-3-2"
         style="fill:#ff6600;stroke-width:1.76472"
         r="30.882521" /><circle
         class="cls-2 marker-france"
         cx="758.90228"
         cy="333.01984"
         id="circle276-6-4-2"
         style="fill:#ff9955;stroke-width:1.76472"
         r="30.882521" /><circle
         class="cls-2 marker-france"
         cx="811.18799"
         cy="154.82176"
         id="circle276-6-4-8"
         style="fill:#ff9955;stroke-width:1.76471"
         r="30.882521" /><circle
         class="cls-2 marker-france"
         cx="681.56824"
         cy="319.78479"
         id="circle276-6-4-8-4"
         style="fill:#ff9955;stroke-width:1.76472"
         r="30.882521" /></g></g></svg>
