<?xml version="1.0" encoding="UTF-8" standalone="no"?>
<!-- Created with Inkscape (http://www.inkscape.org/) -->

<svg
   width="210mm"
   height="297mm"
   viewBox="0 0 210 297"
   version="1.1"
   id="svg1"
   xml:space="preserve"
   inkscape:version="1.3 (0e150ed6c4, 2023-07-21)"
   sodipodi:docname="worldmap_africa.svg"
   xmlns:inkscape="http://www.inkscape.org/namespaces/inkscape"
   xmlns:sodipodi="http://sodipodi.sourceforge.net/DTD/sodipodi-0.dtd"
   xmlns="http://www.w3.org/2000/svg"
   xmlns:svg="http://www.w3.org/2000/svg"><sodipodi:namedview
     id="namedview1"
     pagecolor="#ffffff"
     bordercolor="#000000"
     borderopacity="0.25"
     inkscape:showpageshadow="2"
     inkscape:pageopacity="0.0"
     inkscape:pagecheckerboard="0"
     inkscape:deskcolor="#d1d1d1"
     inkscape:document-units="mm"
     inkscape:zoom="0.24787674"
     inkscape:cx="256.17571"
     inkscape:cy="504.2829"
     inkscape:window-width="1920"
     inkscape:window-height="1001"
     inkscape:window-x="-9"
     inkscape:window-y="-9"
     inkscape:window-maximized="1"
     inkscape:current-layer="sFFT8b.tif" /><defs
     id="defs1"><style
       id="style1">.cls-1{fill:#2e2e2e;}.cls-2{fill:#da49e2;}</style></defs><g
     inkscape:label="Layer 1"
     inkscape:groupmode="layer"
     id="layer1"><g
       id="g1"
       transform="matrix(0.26458333,0,0,0.26458333,-76.476296,28.183335)"><g
         id="sFFT8b.tif"><path
           class="cls-1"
           d="m 556.94989,246.86524 c -5.78325,-2.67994 -11.8777,-4.17506 -16.41613,-7.87056 -32.44323,-26.48907 -64.6012,-53.4295 -96.81103,-80.2571 a 24.274077,26.404445 0 0 1 -5.65358,-5.64198 c -4.82369,-7.67308 -1.47823,-16.61561 6.92434,-19.23913 a 44.94335,48.887717 0 0 1 7.49488,-2.14395 c 11.56649,-1.32587 20.28026,-6.93963 25.00022,-18.92883 3.138,-8.01161 8.92124,-10.07093 16.59766,-10.29661 12.47418,-0.39493 13.2522,-2.03111 10.89222,-15.346169 -0.98549,-5.641975 -2.10065,-11.001852 -3.0602,-16.530988 -2.59338,-15.120494 0.18154,-20.53679 14.36735,-24.401543 11.67023,-3.187716 23.62573,-5.247037 35.45156,-7.785926 3.81228,-0.818087 7.62455,-1.551544 11.43683,-2.285 19.81346,-3.892963 28.26789,11.28395 22.76991,29.563951 -2.59338,8.462963 -2.59338,16.333519 2.90459,21.975494 11.04782,11.086482 10.37354,25.840251 12.03331,39.663091 1.29669,10.63512 0.1556,21.58055 0.33714,32.35673 0.20747,12.52518 2.93052,22.70895 16.44205,26.09413 8.32477,2.05933 8.73971,7.36278 1.6857,13.45612 -16.23458,14.10493 -32.52104,27.95598 -49.09276,41.49672 -3.527,2.79278 -8.32477,3.86476 -13.30406,6.12155 z"
           id="path16"
           style="stroke-width:2.70479" /><path
           class="cls-1"
           d="m 643.77639,522.64501 c 8.92124,-7.02426 17.0126,-13.56895 25.25957,-19.74691 a 16.649527,18.110741 0 0 0 8.09135,-17.77223 16.779196,18.25179 0 0 1 8.06543,-18.05432 c 7.78015,-5.3881 10.01046,-13.28686 10.37354,-22.76538 0.36307,-8.8579 1.55603,-17.71581 2.59338,-26.51729 1.32263,-10.52228 5.44611,-12.55339 14.13395,-7.19352 a 35.062555,38.139754 0 0 1 5.39423,3.83655 c 5.88699,5.33166 11.33309,6.20617 16.6236,-0.98735 a 15.223166,16.559198 0 0 1 13.719,-6.09333 c 18.95764,1.12839 37.94121,1.57975 56.84698,3.07487 12.05924,0.95914 19.32072,16.67204 13.4078,28.20988 a 148.67872,161.72723 0 0 1 -12.52605,21.32667 c -10.03639,14.10495 -9.88079,29.33829 -5.75731,45.30508 2.59339,10.38123 5.67951,20.64963 8.40257,31.03086 2.72305,10.38123 2.59338,10.60691 -7.26148,13.4279 -11.04782,3.1313 -10.84035,14.47167 -13.51153,23.30136 -2.25625,7.44741 1.34856,12.46877 8.06542,15.06407 1.99691,0.76167 4.77183,1.83365 5.39424,3.55445 a 68.543146,74.558705 0 0 1 2.59339,12.60981 38.226484,41.581359 0 0 1 -9.07685,-1.77722 c -19.11324,-9.4221 -37.4744,-20.62142 -57.57313,-27.67389 a 9.8807941,10.747963 0 0 1 -5.18677,-6.48827 103.89097,113.00877 0 0 1 -2.0747,-15.26154 c -1.89318,-14.8384 -1.84131,-15.20513 -14.88603,-17.34908 a 12.733517,13.85105 0 0 0 -9.98453,3.38519 14.522952,15.797531 0 0 1 -12.44824,5.64197 c -5.18677,0 -8.40257,-1.29765 -10.24387,-7.87055 -3.39734,-12.18667 -5.80918,-13.20222 -18.15369,-13.20222 -6.01665,0 -12.05924,0 -18.15369,0 a 12.370443,13.456111 0 0 1 -2.12658,-1.01556 z"
           id="path17"
           style="stroke-width:2.70479" /><path
           class="cls-1"
           d="m 750.28668,165.76184 c 0,18.28 -0.2334,36.67284 0,54.81179 0.25934,14.52809 -3.73447,17.77222 -16.23458,11.08648 -17.40161,-9.30926 -34.49201,-19.29555 -51.71208,-28.99975 a 37.733741,41.045371 0 0 0 -21.6807,-4.96494 c -11.25528,0.93093 -24.11847,-0.90271 -33.06565,-11.96099 a 19.061374,20.73426 0 0 0 -8.48036,-5.64197 14.78229,16.07963 0 0 1 -11.69616,-16.38994 c -0.20748,-13.1176 -2.43779,-26.96865 0.62241,-39.18352 3.39733,-13.39969 11.77396,-25.388891 18.15369,-37.829447 a 3.8641426,4.2032717 0 0 1 3.24173,-1.833642 c 9.43992,2.567099 20.74707,1.918272 26.78966,11.62247 7.54675,11.989199 19.60598,14.838399 30.52413,19.521239 3.68261,1.55154 10.08826,-1.60797 14.08208,-4.51359 4.90149,-3.61086 0.36307,-7.98339 -0.88175,-12.243081 a 10.373537,11.283951 0 0 1 1.9969,-9.39389 c 5.44611,-6.206172 19.86533,-5.895864 26.34879,-0.592407 3.63073,2.962037 7.54674,6.742161 11.74803,7.475618 6.7428,1.213024 8.48036,4.71105 8.4285,11.28395 -0.18154,19.21093 0,38.45006 0,57.66099 z"
           id="path22"
           style="stroke-width:2.70479" /><path
           class="cls-1"
           d="m 846.83838,343.70975 c -2.07471,-6.37544 -3.91601,-12.86371 -6.25005,-19.1263 a 54.642607,59.438211 0 0 0 -4.8237,-8.46296 51.037803,55.517038 0 0 0 -7.33928,6.40364 c -2.59338,3.1595 -4.22721,7.05247 -6.45752,10.49407 -0.95956,1.52334 -2.59339,4.06222 -3.50107,3.83655 -12.96692,-3.49803 -22.27717,11.93277 -35.24409,7.36277 -2.80086,-0.98734 -6.3538,-0.84629 -8.45444,-2.67994 -5.67951,-4.99314 -10.94408,-6.06512 -17.58314,-1.97469 -5.60171,3.4134 -10.37354,-0.95913 -13.53747,-5.07777 -6.95027,-9.30926 -11.30715,-20.17007 -8.92124,-32.52599 a 18.698301,20.339321 0 0 1 6.17225,-10.07093 17.998087,19.577655 0 0 0 6.56127,-17.34907 c -0.31121,-6.06513 -0.15561,-12.18667 0,-18.28 0.1556,-6.09334 -1.4523,-13.00476 6.37972,-16.5592 1.86724,-0.8463 2.15251,-7.4192 2.12658,-11.28395 0,-11.28395 -0.28528,-11.45321 10.37353,-11.28395 21.55103,0.25389 43.10205,0.42315 64.65307,0.93092 8.01356,0.19747 15.43064,-0.31031 20.92861,-7.98339 3.89008,-5.47272 6.82061,-3.35698 9.64739,1.80543 5.70545,10.49407 11.54056,20.90352 17.84249,31.03086 3.63074,5.83945 2.93052,10.63513 -1.50416,14.81019 -8.73971,8.20907 -9.803,18.78778 -10.01047,30.49488 a 67.920734,73.881668 0 0 1 -5.00523,24.20407 c -3.76041,10.74796 -8.84344,20.93173 -13.35593,31.34118 z"
           id="path23"
           style="stroke-width:2.70479" /><path
           class="cls-1"
           d="m 668.18014,780.28582 a 68.90622,74.953643 0 0 1 9.59552,5.95228 c 6.43159,6.03691 13.95241,4.31611 20.98048,3.1313 2.04877,-0.36673 4.56436,-5.21883 4.95336,-8.29371 1.40043,-11.08648 1.99691,-22.31401 3.91601,-33.51333 0,3.01846 -0.18153,6.06512 0,9.05537 0.77802,9.90167 7.13181,13.59716 15.30097,8.91432 a 8.1691605,8.8861113 0 0 0 2.10064,-1.63617 c 8.66191,-10.52229 18.7761,-15.85395 32.1839,-12.01741 1.71163,0.47957 5.78325,-2.82099 6.53533,-5.10599 5.03116,-15.7129 18.15369,-23.52703 27.90481,-34.44426 6.32786,-7.05247 13.27813,-1.66438 19.29478,0.53599 2.59339,0.93093 4.33095,7.44741 4.59029,11.56605 0.46681,7.95519 2.38592,16.53099 -7.59861,21.38309 -3.2158,1.57975 -6.22412,10.69154 -4.9015,14.52808 1.63383,4.68284 7.62455,8.12445 12.34451,10.74797 2.59338,1.49512 6.63906,0.25389 10.192,0.25389 2.25624,5.89586 0.44088,10.69154 -3.57887,15.00765 -15.56031,16.92593 -30.23886,35.03667 -47.25146,50.04432 -7.96169,7.02426 -20.33213,8.46297 -31.12061,11.28395 -5.70545,1.49513 -12.03331,0.59241 -18.15369,0.19747 a 24.922423,27.109692 0 0 0 -19.00951,6.65753 c -5.18677,4.79568 -14.36735,3.35698 -19.76159,-1.97469 a 14.91196,16.220679 0 0 1 -1.94504,-22.08833 c 4.7459,-6.14975 4.17535,-10.63513 -1.34856,-15.20513 -9.31025,-7.87055 -12.96692,-19.06987 -15.22316,-34.98024 z m 129.92855,9.90166 c -3.3714,-4.37253 -6.12039,-10.0145 -10.37354,-12.66623 -2.59338,-1.63617 -7.90982,0.67704 -11.43682,2.51068 a 19.087308,20.76247 0 0 0 -8.5841,7.98339 18.516764,20.141852 0 0 0 -1.81537,12.8355 c 1.58196,7.58845 6.22412,9.92987 13.74493,8.71685 a 24.689018,26.855803 0 0 0 18.4649,-19.38019 z"
           id="path26"
           style="stroke-width:2.70479" /><path
           class="cls-1"
           d="m 734.2855,331.49487 c -17.73874,3.66728 -26.68592,18.5621 -36.69638,31.59506 -2.72306,3.55445 -4.46062,6.40364 -8.84344,6.09333 a 8.3766312,9.1117903 0 0 0 -3.86415,0 c -12.31857,5.64198 -18.67236,-1.24123 -24.11847,-12.24308 -1.81537,-3.66729 -3.55294,-5.64198 -0.38901,-9.33747 6.69093,-7.95519 3.73448,-17.68759 2.95646,-26.77117 -0.1556,-1.89007 -3.26766,-3.75192 -5.18677,-5.10599 -3.26766,-2.14395 -6.8984,-3.63908 -10.08826,-5.95229 a 4.6680917,5.0777779 0 0 1 -1.5301,-4.57 c 4.48655,-8.74506 8.40256,-18.08253 14.26361,-25.61457 5.18677,-6.71395 9.803,-12.77907 9.31025,-22.08833 a 47.147726,51.285557 0 0 1 1.24483,-8.2937 c 1.50416,-12.58161 2.85272,-25.07858 -4.27909,-36.67284 -1.32262,-2.14395 -0.51867,-5.83945 -0.70021,-8.82969 2.74899,0.16926 5.91292,-0.59241 8.16916,0.64882 20.35807,11.28395 40.50866,22.87821 60.81486,34.21858 a 11.410891,12.412346 0 0 1 6.53533,12.52519 c -0.18154,8.46296 0.18154,16.92593 -0.59648,25.38889 a 15.689975,17.066976 0 0 1 -4.56435,10.88901 c -11.54056,9.87346 -9.36212,21.89087 -5.73138,34.38784 0.70021,2.99025 1.97097,5.92408 3.29359,9.73241 z"
           id="path29"
           style="stroke-width:2.70479" /><path
           class="cls-1"
           d="m 522.87282,292.7345 a 194.11481,211.15093 0 0 1 21.52509,-3.4134 c 7.90982,-0.25389 10.37353,-4.90852 10.89221,-12.41234 0.18154,-3.72371 0.25934,-7.50383 0.70021,-11.28395 0.82989,-7.16531 2.9046,-12.13025 10.37354,-15.57186 8.48037,-3.92117 15.56031,-11.67889 22.97739,-17.94148 10.91814,-9.14 21.65476,-18.59031 32.6507,-27.64568 12.55198,-10.38123 32.41731,-5.41629 39.41945,9.59136 a 54.642607,59.438211 0 0 1 -8.45444,64.65704 c -1.9969,2.39784 -4.71996,4.90852 -5.18677,7.78592 -4.01974,21.35488 -20.74707,24.06303 -35.52936,26.46087 -12.73352,2.03111 -26.47845,2.51068 -38.74516,-6.31901 -6.69093,-4.8521 -14.70449,-1.94648 -20.74708,4.96494 -8.8175,9.98629 -11.09968,9.90166 -18.62049,-1.29766 -3.68261,-5.1342 -6.89841,-10.5787 -11.25529,-17.57475 z"
           id="path30"
           style="stroke-width:2.70479" /><path
           class="cls-1"
           d="m 729.92862,648.856 c -5.91292,4.76747 -11.28122,6.14975 -16.67546,3.27235 -14.96383,-8.06803 -30.91314,-7.02426 -46.83652,-6.99605 -9.46586,0 -18.95764,-0.16926 -28.52723,-0.25389 -5.34237,0 -7.78015,-2.82099 -7.78015,-8.74506 0,-12.72266 0,-25.21963 10.81441,-34.10575 9.77706,-8.03981 9.02498,-19.46481 6.69093,-30.80518 -2.10064,-10.01451 -4.90149,-19.88797 -7.07994,-29.90247 -2.17844,-10.01451 -1.65976,-10.09914 7.57268,-10.80438 4.30502,-0.33852 8.61004,-0.33852 12.96693,-0.33852 12.39637,0 12.21484,0 16.54579,13.37148 0.88175,2.82099 3.63074,6.65753 5.57577,6.68574 8.79158,0 18.75017,5.64197 25.54484,-6.34722 3.08613,-5.44451 12.96692,-1.91827 14.62669,5.30345 a 88.40847,96.167471 0 0 1 1.8413,18.05433 c 0.46681,8.23728 1.89317,15.09228 11.59243,14.72555 4.09754,-0.16926 7.054,2.31321 5.88698,6.855 -0.59648,2.39784 -3.4492,4.51358 -5.75731,5.83945 a 17.738748,19.295556 0 0 1 -6.32786,0.90271 c -4.92743,0.62062 -8.24696,3.10309 -7.78015,8.97074 1.08922,15.03587 -4.51249,31.08729 7.10587,44.31772 z"
           id="path32"
           style="stroke-width:2.70479" /><path
           class="cls-1"
           d="m 444.73415,338.51913 c -8.14323,1.80543 -13.38186,-1.52334 -15.4047,-10.43766 -1.4523,-6.51648 -5.18677,-9.61956 -11.38496,-8.20907 -5.78325,1.32586 -10.16607,0.59241 -11.6443,-6.855 -0.33714,-1.69259 -1.89317,-3.07488 -2.85272,-4.62642 -7.15774,-11.56605 -5.18677,-16.16426 8.09136,-16.70025 13.79681,-0.5642 27.59361,-0.19747 41.49415,-0.45136 12.55198,-0.22568 13.35593,-0.90271 11.74803,-14.72555 -2.59338,-22.76537 -5.96478,-45.4179 -8.99904,-68.12686 -0.41495,-3.24413 -1.01142,-6.46006 -1.14109,-9.7324 -0.44088,-11.28395 5.18677,-15.17692 14.60075,-10.2684 a 53.345915,58.027717 0 0 1 8.48037,6.40365 q 27.30833,22.5679 54.46107,45.1358 4.12348,3.41339 8.32476,6.68574 c 3.6048,2.82099 10.1142,5.27525 10.37354,8.46296 a 70.021375,76.166668 0 0 1 -2.82679,24.82469 c -0.51868,2.20037 -5.36831,4.00581 -8.4285,4.51358 a 136.23048,148.18648 0 0 1 -24.40375,2.5671 c -10.37353,-0.31031 -18.15369,4.06222 -25.7523,10.86081 -5.65358,5.07777 -12.08517,9.16821 -17.42754,14.55629 -4.25315,4.2879 -8.92125,9.33747 -10.68475,15.06408 -3.00832,9.47851 -8.37663,12.18666 -16.62359,11.05827 z"
           id="path33"
           style="stroke-width:2.70479" /><path
           class="cls-1"
           d="m 979.9568,368.16771 c -13.95241,15.23333 -22.27717,33.85185 -42.24623,38.98605 -8.79158,2.20037 -17.27194,5.78302 -25.93385,8.63222 -8.6619,2.8492 -16.67546,1.94648 -23.88507,-5.30346 -10.91814,-10.94543 -25.05209,-18.25179 -31.87269,-33.85185 a 12.577914,13.68179 0 0 0 -5.88698,-4.96494 c -8.48037,-4.51358 -8.32476,-4.20327 -2.04877,-12.60981 a 57.624999,62.682347 0 0 0 7.054,-13.45611 c 4.92743,-11.45321 9.51772,-23.07568 14.28955,-34.58531 6.19819,-14.81019 21.39542,-19.1263 33.48059,-8.80148 8.53223,7.27814 19.16511,13.54074 17.11634,28.77407 -0.18154,1.52333 3.08612,5.19062 4.64215,5.1342 7.90983,-0.31031 10.89222,5.64197 16.00118,10.66333 8.40257,8.06803 19.78753,12.52519 30.00546,18.28 a 56.35424,61.300063 0 0 0 9.28432,3.10309 z"
           id="path34"
           style="stroke-width:2.70479" /><path
           class="cls-1"
           d="m 351.39825,278.1782 v -51.05988 c 7.31334,-0.33852 15.74184,-0.62061 24.14441,-1.18481 10.91814,-0.70525 10.89221,-0.78988 13.4856,-12.46877 0.59647,-2.65173 1.01142,-7.05247 2.41184,-7.53203 10.37354,-3.52624 8.1951,-12.69445 8.5841,-20.81889 0.46681,-10.18377 0.98549,-10.77618 10.65881,-11.28396 5.60171,-0.28209 11.22936,0 16.80513,-0.39493 2.43779,-0.16926 6.56127,-0.78988 6.97621,-2.20037 3.86414,-13.42791 8.94717,-4.31612 13.51153,-1.07198 2.85272,2.03111 5.36831,4.62642 8.16916,7.05247 -3.03426,2.65173 -7.00214,4.40074 -7.96169,7.33457 -1.19296,3.66728 -0.18154,8.32191 0.36307,12.46877 3.3714,25.38888 6.97621,50.77777 10.37354,76.30771 1.40043,10.83259 1.16702,11.00185 -8.6619,11.28395 -10.76255,0.2821 -21.57696,-0.33852 -32.28764,0.50778 a 69.295228,75.376792 0 0 0 -19.60598,5.04957 c -4.56436,1.94648 -7.23554,1.32586 -9.75113,-2.82099 -1.16702,-1.94648 -2.46371,-3.83654 -3.81227,-5.64197 -7.78015,-10.35303 -15.04163,-12.44056 -25.93384,-7.33457 -2.04878,0.8745 -3.86415,1.91827 -7.46895,3.80833 z"
           id="path35"
           style="stroke-width:2.70479" /><path
           class="cls-1"
           d="m 754.2805,154.70357 c 0,-14.52809 -0.20747,-29.08439 0,-43.61247 0.18153,-10.2684 2.59338,-12.327719 12.00737,-10.5505 a 70.825325,77.041174 0 0 1 9.98453,2.82099 c 6.63906,2.39784 12.83725,2.20037 17.99808,-3.498024 4.64216,-5.105988 9.41399,-5.783025 14.9379,-1.777222 a 7.7801528,8.4629631 0 0 0 4.82369,1.720802 c 11.7221,-1.946481 14.54889,6.826794 16.98667,16.220674 1.42636,5.38809 3.18986,10.71976 4.20128,16.22068 a 18.15369,19.746914 0 0 1 -1.27076,7.1371 c -1.81537,-1.7208 -4.33095,-3.04666 -5.18677,-5.21882 -1.81537,-4.20328 -2.28218,-9.08358 -4.20128,-13.23044 -1.16702,-2.51068 -3.99381,-4.11864 -6.06852,-6.14975 -1.29669,2.99025 -4.27908,6.60111 -3.6048,8.88611 a 74.819136,81.385495 0 0 0 9.02497,21.38309 c 6.89841,10.71975 15.19724,20.39574 22.48465,30.83339 6.35379,9.08359 7.00213,20.28291 2.30811,27.36359 a 15.560306,16.925926 0 0 1 -14.10801,7.98339 c -23.34046,-0.84629 -46.55125,-1.35407 -69.81391,-1.77722 -7.10587,0 -9.95859,-3.52623 -9.80299,-11.28395 0.25934,-14.52809 0,-29.08439 0,-43.61247 z"
           id="path37"
           style="stroke-width:2.70479" /><path
           class="cls-1"
           d="m 853.58118,645.30156 c -0.18154,-11.45321 -1.50416,-21.32667 -9.15465,-28.99976 -1.63383,-1.60796 -1.6857,-6.51648 -0.85581,-9.30926 a 45.332357,49.310865 0 0 0 -0.51868,-28.99975 c -1.63383,-6.43185 -0.62241,-11.00185 7.78015,-11.28395 l -1.32262,-2.82099 c -3.4492,-0.8463 -6.87247,-1.80543 -10.37354,-2.5671 -12.52605,-2.82099 -22.95145,-7.89876 -24.79275,-23.95018 a 56.48391,61.441112 0 0 0 -3.52701,-13.45612 c -2.30811,-6.68574 -1.89317,-11.425 3.2158,-17.37728 4.27908,-5.02136 5.03117,-13.54074 7.57268,-20.42395 1.65977,-4.51358 2.59339,-10.97364 5.80918,-12.77908 6.22413,-3.61086 13.84868,-6.68574 20.95455,-2.03111 16.23458,10.66334 32.20983,21.72161 48.26288,32.66704 3.24173,2.20037 4.04568,4.8521 3.2158,9.4221 -3.24173,17.77222 -2.87866,35.06488 6.32785,51.3984 5.18677,9.02716 3.91601,10.91722 -5.73138,12.35592 -10.21793,1.55155 -20.51367,2.51068 -30.78347,3.6955 -16.23458,1.89006 -20.3062,11.28395 -10.37353,25.81203 a 25.933843,28.209877 0 0 1 6.04258,14.81019 c 1.06329,10.55049 -2.82679,17.65938 -11.74803,23.83735 z"
           id="path38"
           style="stroke-width:2.70479" /><path
           class="cls-1"
           d="m 745.15178,661.55044 c -6.19818,0.45136 -12.39637,0.76167 -18.56863,1.38229 -9.77706,1.01555 -10.37353,1.80543 -11.82583,12.66623 -0.67428,5.10599 -1.27076,10.24019 -2.33405,15.23334 -0.51867,2.53889 -1.50416,6.48827 -3.08612,7.02426 -8.48037,2.96203 -7.33928,10.18376 -7.62455,17.17981 -0.75208,18.22358 -1.50417,36.47537 -2.80086,54.64253 -1.01142,14.41525 -7.41708,17.63118 -19.0095,10.2684 -1.11516,-0.70525 -2.07471,-2.285 -3.16393,-2.36963 -13.71901,-1.04377 -16.00118,-13.20222 -20.04686,-23.83735 -5.44611,-14.33061 -11.20342,-28.37913 -6.12039,-44.65623 1.01142,-3.24414 -0.85582,-8.23729 -2.59338,-11.65068 -3.63074,-6.91142 -8.16917,-13.23043 -12.16298,-19.91618 a 38.408021,41.778828 0 0 1 -4.87556,-9.78882 c -4.56436,-15.51543 -2.87866,-17.88506 12.13704,-17.94148 12.05924,0 24.14441,-0.53599 36.30738,0 a 79.22789,86.181174 0 0 1 22.61431,4.37253 59.907177,65.164816 0 0 0 26.55625,3.55444 c 5.42018,-0.5642 10.94409,0 16.44206,0 -0.0778,1.41049 0.0519,2.67994 0.1556,3.83654 z"
           id="path44"
           style="stroke-width:2.70479" /><path
           class="cls-1"
           d="m 542.06386,376.29215 c 1.50416,-4.79568 2.07471,-10.38123 4.74589,-14.10494 5.65358,-8.12444 6.61313,-16.92592 6.22413,-26.54549 a 52.723502,57.35068 0 0 1 0.18153,-9.84525 c 1.5301,-13.4279 10.1142,-18.36463 21.18795,-11.81994 16.83107,9.95809 33.8696,7.81414 51.11561,2.05933 a 24.533415,26.686544 0 0 0 5.91291,-2.82099 c 5.62765,-3.80834 10.37354,-2.65173 15.19724,2.05932 a 11.644295,12.666235 0 0 1 2.59338,15.51543 c -7.05401,15.54364 -14.78229,30.74877 -22.89958,45.64358 -1.2967,2.42605 -5.78325,3.35698 -8.97311,3.92118 -10.0364,1.74901 -17.47941,6.43185 -21.47322,17.34907 -3.99382,10.91722 -17.66095,13.68179 -25.62264,6.06512 -3.24173,-3.10308 -5.54984,-7.33456 -8.92124,-10.18376 a 31.354016,34.105741 0 0 0 -11.92957,-7.08068 c -5.60171,-1.4105 -7.02807,-4.23148 -7.33928,-10.21198 z"
           id="path49"
           style="stroke-width:2.70479" /><path
           class="cls-1"
           d="m 346.18555,219.75555 c 13.43373,-23.9784 24.66308,-45.61538 37.50033,-66.01112 4.30502,-6.855 12.37045,-11.45321 19.45039,-15.57185 a 31.120611,33.851852 0 0 0 16.57172,-21.91908 c 1.14109,-4.51358 3.11206,-8.74506 4.33095,-13.23043 2.93053,-10.719751 7.52082,-19.239134 18.15369,-23.696295 4.09755,-1.720802 7.59862,-7.447407 9.59552,-12.243086 3.00833,-7.05247 7.10588,-9.788828 14.08208,-9.28105 6.9762,0.507778 13.77087,0.310309 20.74708,0 5.18676,-0.169259 8.11729,2.059321 8.97311,7.673087 0.54461,3.695494 1.55603,7.306358 1.9969,11.001852 0.64835,5.472716 2.59339,11.819938 0.80395,16.192469 -1.14109,2.820988 -8.55817,1.833642 -12.57791,3.892963 -4.01975,2.059321 -8.86938,4.96494 -10.37354,8.88611 -5.86105,14.10494 -15.84558,20.14185 -29.22744,21.58056 -2.59339,0.25389 -4.95337,1.66438 -7.49488,2.08753 -5.80918,0.93092 -7.78015,4.90852 -8.03949,10.77617 -0.15561,6.54469 -0.46681,13.11759 -0.41494,19.74692 0.0519,6.62932 -2.30812,9.56314 -8.4285,9.33747 -5.60171,-0.22568 -11.22936,-0.16926 -16.80513,0 -9.31025,0.39493 -10.1142,1.1566 -10.55508,11.53783 -0.36307,7.89877 0.67428,15.74112 -8.24696,20.02902 -2.10064,0.98735 -2.33405,7.53204 -2.59338,11.59426 -0.46681,5.21883 -2.74899,7.56025 -7.44302,7.53204 z"
           id="path50"
           style="stroke-width:2.70479" /><path
           class="cls-1"
           d="m 814.03207,629.41939 c 6.30192,-3.46981 10.0364,-5.64197 13.92647,-7.61666 9.93267,-4.79568 17.73875,0 18.75017,12.07383 0.59648,6.93962 -1.27076,17.17981 4.95337,18.70314 4.22721,1.04377 10.99595,-7.05247 15.5603,-12.10203 6.45753,-6.93963 5.83512,-25.81204 -0.38901,-33.85186 a 60.114648,65.390495 0 0 1 -6.09445,-7.1371 c -3.6048,-6.46006 -1.7635,-10.66333 5.00523,-11.7353 12.37045,-1.94649 24.74089,-3.78013 37.13727,-5.38809 8.8953,-1.1284 10.581,0.53599 11.25528,10.32481 0.31121,4.65463 0.44088,9.36568 0.51868,14.10494 0,8.46297 5.0571,17.65939 -3.83821,24.5426 -6.58719,5.07777 -12.96692,10.46586 -19.32071,15.85395 -11.90364,9.98629 -24.04067,19.74691 -35.34783,30.38203 -2.59338,2.48247 -2.80085,8.60402 -3.08613,13.1176 -0.67428,10.74796 -0.3112,21.58055 -1.11515,32.30031 a 27.541741,29.958889 0 0 1 -20.74708,25.38889 9.6992572,10.550494 0 0 1 -10.52914,-9.76062 c -0.85581,-12.92013 -3.4492,-26.5455 6.14632,-37.4063 13.30407,-15.09228 11.25529,-33.56975 9.41399,-51.7087 -0.36307,-3.80834 -3.89008,-7.89877 -6.92434,-10.5505 -3.73447,-3.38518 -8.61003,-5.61376 -15.27503,-9.53494 z"
           id="path52"
           style="stroke-width:2.70479" /><path
           class="cls-1"
           d="m 839.3435,593.84674 c -0.18154,10.60691 -2.87866,19.1263 -13.43373,22.85 -6.53533,2.285 -12.52605,6.31901 -19.00951,8.88611 a 37.681874,40.988951 0 0 0 -21.49915,19.04167 c -4.27909,8.68864 -10.86628,11.48142 -19.42445,10.04271 -8.03949,-1.35407 -16.36426,-1.80543 -24.09254,-4.34432 -7.72829,-2.53889 -11.8777,-10.43765 -12.96692,-19.1545 a 81.276663,88.409755 0 0 1 0,-15.45902 c 0.36307,-12.15845 0.46681,-11.79172 11.98143,-14.47166 3.138,-0.73346 7.49488,-3.78013 8.22103,-6.68574 1.86724,-7.27815 5.39424,-6.14976 9.59552,-3.83655 11.82584,6.46006 23.62573,13.00476 35.29596,19.74692 4.6681,2.82098 12.96693,2.42605 15.71591,-1.1284 3.34547,-4.31611 1.4523,-17.94148 -3.18986,-21.91907 a 37.65594,40.960742 0 0 0 -4.48656,-2.82099 c -9.54365,-6.12154 -10.60694,-9.76062 -5.99071,-20.31111 3.81227,-8.66043 10.71067,-11.76352 19.19104,-8.46296 16.59766,6.20617 24.35188,18.42104 24.09254,38.02691 z"
           id="path56"
           style="stroke-width:2.70479" /><path
           class="cls-1"
           d="m 1002.4414,592.49267 c 2.5934,11.28395 5.3683,22.25759 7.3912,33.54154 a 8.5581681,9.3092594 0 0 1 -3.527,7.64488 c -7.20963,4.71105 -9.95862,10.38123 -7.59864,19.74691 a 18.15369,19.746914 0 0 1 -1.97097,12.94833 c -6.665,13.65358 -14.39328,26.71476 -20.95454,40.42476 a 36.151777,39.324569 0 0 0 -3.94195,17.12339 c -0.12967,11.28395 -4.69402,18.30821 -14.80822,20.02902 -9.18058,1.60796 -19.06138,-4.88031 -20.04686,-14.95124 -1.32263,-13.20222 -4.14942,-27.25074 7.44301,-37.88586 5.18677,-4.73926 4.79776,-11.67889 4.33095,-18.33642 -0.12967,-1.86186 -0.2334,-3.75192 -0.389,-5.64198 -2.15251,-24.88111 0.44087,-28.77407 23.00331,-31.39759 a 13.874606,15.092284 0 0 0 11.7999,-9.19642 c 5.36831,-11.28395 10.78848,-22.28581 16.18272,-33.45692 z"
           id="path57"
           style="stroke-width:2.70479" /><path
           class="cls-1"
           d="m 833.27498,327.71475 c 3.2158,6.71395 5.44611,11.76351 7.98763,16.61561 2.54151,4.8521 3.63073,8.46297 -1.01142,13.39969 -5.65358,6.09334 -2.59339,15.00766 4.61622,18.67494 a 29.123705,31.679692 0 0 1 9.90673,7.89877 c 3.65667,4.82389 9.05091,10.8608 -1.47823,14.49988 -0.70022,0.22567 -1.21889,1.26944 -1.73757,2.0029 -2.43778,3.41339 -4.66809,9.59135 -7.33928,9.78882 a 127.41297,138.59513 0 0 1 -26.81559,-1.41049 c -6.19819,-0.93093 -12.08517,-4.59821 -18.15369,-5.35988 a 23.340458,25.388889 0 0 1 -15.79371,-8.03981 c -9.07685,-10.69155 -18.41303,-21.10099 -27.90482,-31.36938 -3.89007,-4.20328 -5.47204,-8.2655 -2.17844,-13.54075 3.2936,-5.27524 11.20342,-8.15265 15.74184,-5.33166 12.60385,7.78592 24.92243,9.16821 37.29287,-0.45136 0.98549,-0.76167 2.80086,-1.60796 3.55294,-1.1284 11.04781,6.88321 14.23768,-3.13129 18.90577,-10.09913 1.08922,-1.83364 2.48965,-3.55445 4.40875,-6.14975 z"
           id="path58"
           style="stroke-width:2.70479" /><path
           class="cls-1"
           d="m 753.58028,660.02711 c 10.68475,13.39969 20.04686,24.93753 29.17558,36.67284 6.27599,8.03982 6.12038,8.80148 -0.54461,16.10784 -8.40257,9.19642 -18.98358,16.22068 -23.34046,29.45111 a 8.0135574,8.716852 0 0 1 -7.18368,3.24414 c -10.52914,-3.44161 -18.36116,0.62062 -25.28549,8.82969 a 14.10801,15.346173 0 0 1 -6.14633,4.90852 c -1.7635,0.47957 -5.67951,-1.04377 -5.93885,-2.285 -2.59338,-13.31506 -4.82369,-26.68655 -6.61312,-40.14266 a 12.111105,13.174013 0 0 1 5.54984,-13.1458 c 2.87865,-2.34142 4.14941,-7.58846 5.18677,-11.81994 a 80.187442,87.22494 0 0 0 1.19295,-12.52518 c 0.75208,-7.16531 4.17535,-10.66334 11.15156,-10.2684 8.68783,0.50778 17.47941,0.19747 22.79584,-9.02716 z"
           id="path59"
           style="stroke-width:2.70479" /><path
           class="cls-1"
           d="m 778.37304,403.2608 c -9.41399,-0.59241 -18.85391,-0.90272 -28.24196,-1.83365 -6.76873,-0.67703 -12.96692,-0.33851 -17.53128,6.03692 -4.12348,5.64197 -8.5063,5.30345 -13.22626,0.95913 a 33.143451,36.052223 0 0 0 -3.16392,-2.42605 c -11.61837,-8.46296 -12.65572,-7.50382 -22.53651,2.82099 -4.6681,4.90852 -12.81132,9.90167 -18.3093,8.77327 -5.49797,-1.12839 -10.37353,-9.36568 -13.69307,-15.60006 -3.31953,-6.23438 5.34238,-21.43951 12.31858,-23.1321 a 156.43294,170.16198 0 0 1 18.90577,-3.49802 c 4.84963,-0.50778 6.95027,-3.07488 9.72519,-7.33457 a 105.62854,114.89883 0 0 1 21.21389,-25.6992 c 3.94194,-3.24413 12.1111,-1.18481 18.15369,-0.14105 1.53009,0.25389 4.04567,7.05247 3.06019,8.66043 -4.20128,6.88321 0,10.29661 3.57887,14.30241 8.09136,9.11179 16.23458,18.13895 24.30001,27.25074 2.30811,2.62352 4.48655,5.4163 6.69093,8.12445 z"
           id="path61"
           style="stroke-width:2.70479" /><path
           class="cls-1"
           d="m 913.22902,421.37154 c -0.23341,14.10494 -0.57055,26.48907 -0.57055,38.95784 a 23.029252,25.050371 0 0 0 1.97098,8.01162 c 1.19295,3.66728 4.64215,8.2937 3.6048,10.66333 a 123.73036,134.58932 0 0 1 -12.65571,20.93173 c -0.46681,0.70525 -3.34547,0.25389 -4.59029,-0.59241 -15.0935,-9.90167 -30.21293,-19.74691 -44.94335,-30.2692 -1.99691,-1.41049 -2.59339,-6.06512 -2.74899,-9.30927 a 10.944082,11.904568 0 0 1 2.28218,-6.46006 c 7.00213,-11.90457 8.92124,-23.55525 0.88175,-36.24969 -1.86724,-2.96204 -1.81537,-11.03007 0,-12.35593 a 17.271939,18.787778 0 0 1 12.96692,-1.49512 29.590515,32.18747 0 0 1 11.59243,8.46296 c 9.31025,10.09914 19.42444,15.54364 32.20983,9.7042 z"
           id="path65"
           style="stroke-width:2.70479" /><path
           class="cls-1"
           d="m 918.41579,445.88592 c 0,-20.95994 4.30502,-27.75852 22.51057,-33.45691 a 46.214108,50.270001 0 0 0 22.51058,-15.45902 384.80636,418.57816 0 0 1 27.82701,-31.39759 c 8.1951,-8.09623 11.61835,-16.92593 9.31025,-28.71765 -1.27076,-6.51649 2.9046,-11.08649 9.2843,-11.05828 6.3798,0.0282 6.5354,5.64198 5.6795,10.04272 -3.6826,19.21093 -6.9762,39.1271 -19.29475,54.2758 -19.99499,24.62723 -41.07921,48.18247 -61.72255,72.16088 a 44.295003,48.18247 0 0 1 -3.6048,4.03402 c -4.92743,4.51358 -10.1142,3.1595 -11.48869,-3.63908 a 98.055859,106.66155 0 0 1 -1.01142,-16.78489 z"
           id="path72"
           style="stroke-width:2.70479" /><path
           class="cls-1"
           d="m 658.24748,325.85289 c -0.36308,7.02426 1.7635,14.97945 -4.59029,21.60877 -3.73448,3.86475 -2.59339,8.46296 1.27075,12.13025 9.43992,8.66043 10.81442,18.39284 3.60481,29.59216 -5.18677,8.23728 -3.89008,15.76932 2.59338,22.5679 a 70.021375,76.166668 0 0 1 7.78016,9.33747 c 1.34856,2.0029 2.95645,5.64197 2.20437,7.02426 a 8.8175065,9.5913582 0 0 1 -6.50939,3.04666 c -15.92338,0.73346 -31.87269,1.04377 -47.79607,1.63618 -5.03117,0.19747 -7.18368,-2.34142 -6.69094,-7.61667 a 16.364255,17.800432 0 0 0 -5.42017,-14.95123 c -5.88698,-6.71396 -5.18677,-13.59717 1.78944,-18.61852 4.14941,-2.82099 9.56958,-3.63908 14.26361,-5.64198 3.76041,-1.69259 8.94718,-2.82099 10.65881,-6.12154 9.51772,-17.91327 18.07589,-36.16506 26.84153,-53.99371 z"
           id="path74"
           style="stroke-width:2.70479" /><path
           class="cls-1"
           d="m 762.06065,661.55044 a 92.220745,100.31432 0 0 1 11.09968,-0.5924 c 6.95027,0.78987 11.46276,-2.67994 14.49702,-9.08358 0.20747,-0.39494 0.49275,-0.76167 0.72615,-1.15661 13.35593,-21.24204 14.54889,-21.38309 34.67355,-9.39389 6.01665,3.58266 8.11729,8.01161 8.5841,15.43081 0.98549,16.41814 -0.85582,31.4258 -11.09969,44.45876 -3.16392,4.03401 -5.75731,5.64198 -10.84034,4.31611 -9.9586,-2.36963 -18.51677,-6.12154 -24.97429,-15.37438 -6.45753,-9.25284 -13.74494,-17.49012 -22.66618,-28.60482 z"
           id="path77"
           style="stroke-width:2.70479" /><path
           class="cls-1"
           d="m 486.66917,400.43981 c -16.85699,-2.62352 -31.84676,-0.98735 -46.39564,11.50963 -1.01142,-13.39969 -2.23031,-24.31692 -10.37354,-32.72346 -1.5301,-1.57975 -1.11515,-7.75772 0.49274,-9.9863 a 17.920285,19.493025 0 0 0 3.83821,-15.68469 c -0.72614,-6.17796 2.41185,-8.46296 7.78016,-8.46296 6.79466,0.14105 13.77087,-1.60796 19.70972,4.20327 a 13.978341,15.205124 0 0 0 7.15774,2.53889 c 10.37353,1.52333 11.02188,1.49512 9.93266,12.21488 -1.27076,13.17401 -1.03735,25.4171 7.85795,36.39074 z"
           id="path85"
           style="stroke-width:2.70479" /><path
           class="cls-1"
           d="m 655.83563,463.03754 c 0,4.82389 0,7.16531 0,9.50673 -0.41494,12.80728 -2.43778,14.33062 -12.70758,8.20907 -4.30502,-2.53889 -7.78016,-3.27234 -11.82584,0 -3.6826,2.82099 -6.9762,5.27525 -3.86414,11.28395 1.03736,2.03111 -0.38901,5.64198 -0.70021,8.46297 a 25.77824,28.040618 0 0 1 -7.49488,-3.49803 164.80957,179.27377 0 0 1 -11.51463,-13.23043 c -10.06233,-11.9892 -10.37354,-17.54654 -1.14109,-30.09995 a 10.373537,11.283951 0 0 1 6.01665,-4.48537 c 7.78016,-0.59241 15.56031,-0.19747 19.78753,-9.4221 0.33714,-0.76167 5.18676,-0.42315 5.57577,0.47956 2.43778,6.57291 7.57268,6.31902 12.62978,7.36278 a 7.7801528,8.4629631 0 0 1 4.59029,5.64198 42.401833,46.123149 0 0 1 0.64835,9.78884 z"
           id="path88"
           style="stroke-width:2.70479" /><path
           class="cls-1"
           d="m 516.13002,336.03666 c -8.03949,-1.15661 -13.97834,-2.34142 -19.96906,-2.82099 -5.99072,-0.47957 -11.9555,0 -14.67856,8.06803 -2.38591,7.13709 -8.55816,5.86765 -13.30406,4.40074 -5.62764,-1.74902 -4.27908,-7.30636 -3.11206,-11.84815 0.90769,-3.58266 1.42636,-8.29371 3.73448,-10.29661 12.05923,-10.43765 24.40374,-20.565 37.18913,-29.95889 4.71996,-3.4416 9.88079,-1.55154 13.22626,4.28791 2.59338,4.34432 5.86104,8.18086 8.11729,12.66623 2.25624,4.48537 5.78325,10.71975 4.35688,13.17401 -3.78634,6.48827 -9.64739,11.84815 -15.5603,12.32772 z"
           id="path89"
           style="stroke-width:2.70479" /><path
           class="cls-1"
           d="m 634.41428,504.0547 c 0.25933,-5.44451 0.51867,-11.62247 0.88175,-19.57765 a 61.152001,66.51889 0 0 0 11.41089,5.83944 c 10.37353,2.53889 16.62359,2.0029 15.5603,-11.76352 -0.51867,-6.51648 -0.20747,-13.11759 -0.25934,-19.74693 -0.1556,-14.97944 -0.1556,-14.97944 -14.86009,-19.74691 a 122.25213,132.98136 0 0 1 13.2522,-1.01556 c 8.37663,0.47957 15.27503,-1.83364 19.55411,-10.40944 a 13.381863,14.556297 0 0 1 3.26767,-4.31611 c 3.83821,-3.35698 8.40256,-1.66438 7.98762,3.55444 -1.03735,12.94834 1.78944,27.42 -11.33309,36.39076 -7.10587,4.8521 -8.71377,13.31506 -9.07684,22.11654 -0.33714,7.53204 -12.73352,22.96284 -19.29478,23.86556 -2.10064,0.2821 -4.43469,-2.0029 -6.76874,-2.82099 -3.4492,-0.8463 -6.92433,-1.55154 -10.32166,-2.36963 z"
           id="path96"
           style="stroke-width:2.70479" /><path
           class="cls-1"
           d="m 515.2742,370.9887 c 0,5.13419 -0.33714,10.26839 0,15.37438 0.54461,7.22173 -2.93052,11.11469 -8.3507,14.10494 -7.57268,4.23148 -9.72519,3.41339 -15.19723,-3.55445 -13.22626,-16.92592 -7.78015,-35.23413 -3.18986,-52.92173 2.07471,-7.89876 10.37354,-4.0058 16.00118,-3.89296 5.62764,0.11284 10.14013,2.82099 10.24387,9.92988 0.10373,7.10889 0,13.96389 0,20.95994 z"
           id="path101"
           style="stroke-width:2.70479" /><path
           class="cls-1"
           d="m 388.66518,327.03771 c 8.97311,-0.42315 17.94622,-0.73346 26.8934,-1.29766 4.97929,-0.31031 8.5063,1.49513 9.64739,7.02426 1.55603,7.7013 3.8382,15.43081 3.99381,23.16031 a 14.341415,15.600062 0 0 1 -6.35379,11.28395 c -1.55603,1.10019 -6.37973,-2.82098 -9.49179,-5.10598 a 16.001181,17.405494 0 0 1 -3.26766,-4.31612 C 399.713,343.879 394.21502,342.97629 381.0147,353.10363 c -6.56126,5.02136 -12.03331,2.82099 -13.87461,-5.64197 a 6.9502699,7.5602471 0 0 1 -0.25934,-2.82099 c 0.57055,-4.68284 17.03854,-18.95704 21.78443,-17.60296 z"
           id="path104"
           style="stroke-width:2.70479" /><path
           class="cls-1"
           d="m 836.07584,417.16827 c 17.27194,0.22567 23.85913,11.62246 17.79061,26.46086 -1.03735,2.5671 -2.59338,4.99315 -3.2936,7.61667 -2.74898,8.63222 -6.87246,14.75378 -16.57172,14.27421 -3.65667,-0.16926 -7.41708,3.10309 -11.12562,3.07488 a 12.085171,13.145803 0 0 1 -8.4285,-4.48538 c -1.19295,-1.69259 -0.38901,-6.12155 0.77802,-8.63223 2.33404,-4.96494 5.88698,-9.25284 8.29883,-14.10494 a 38.719227,42.117346 0 0 0 3.6048,-11.7071 c 0.57055,-3.32876 -1.08922,-8.66043 0.46681,-9.95809 2.64525,-2.34142 7.15774,-2.20037 8.48037,-2.53888 z"
           id="path108"
           style="stroke-width:2.70479" /><path
           class="cls-1"
           d="m 605.13497,110.86542 c -0.72615,-0.93093 -2.30812,-2.0029 -2.23031,-2.82099 0.67428,-10.240185 -3.60481,-17.631173 -10.08827,-24.570803 -2.25624,-2.397839 -3.94194,-9.224629 -2.59338,-11.283951 5.4461,-7.644876 2.87865,-15.007654 1.55603,-22.73716 -1.78944,-10.409445 4.40875,-17.518334 14.28955,-16.925927 4.56435,0.338519 5.99071,3.385186 5.18676,7.729507 -2.04877,10.889012 5.91292,21.806235 0,32.864506 -0.41494,0.789877 2.43779,4.964939 4.38282,5.783025 7.31335,3.046667 4.7459,7.278148 1.86724,11.904568 -3.94194,6.375433 -7.70235,12.694445 -12.37044,20.057225 z"
           id="path109"
           style="stroke-width:2.70479" /><path
           class="cls-1"
           d="m 401.68397,318.03876 a 20.928611,22.765371 0 0 1 -5.49797,2.82098 c -6.19819,0.81809 -15.56031,-5.21882 -16.5458,-12.27129 -1.19295,-8.01161 -4.79776,-8.46296 -10.73661,-7.39099 a 69.528632,75.63068 0 0 1 -15.4047,0.45136 c -7.28741,-0.64883 -9.59552,-5.33167 -4.87556,-10.88901 a 39.678779,43.161112 0 0 1 15.30097,-12.10204 16.001181,17.405494 0 0 1 13.719,3.97759 313.98103,341.53698 0 0 1 21.57696,29.56395 28.527227,31.030865 0 0 1 2.46371,5.83945 z"
           id="path126"
           style="stroke-width:2.70479" /><path
           class="cls-1"
           d="m 886.80243,256.37197 c 1.89317,2.34142 3.34547,3.30055 3.4492,4.40074 1.99691,18.64673 13.71901,28.99975 26.86747,38.50648 3.50106,2.53889 5.80918,7.05247 8.6619,10.69154 -6.69093,4.34432 -9.02498,-3.07487 -12.24078,-6.14975 -7.78015,-7.36278 -15.5603,-12.18667 -26.34878,-11.50963 -12.21484,0.76167 -17.45348,-10.18377 -11.07375,-22.31401 2.61932,-4.96494 6.87247,-8.88611 10.68474,-13.62537 z"
           id="path137"
           style="stroke-width:2.70479" /><path
           class="cls-1"
           d="m 943.80502,337.13684 c 9.41398,10.32482 19.21698,6.06513 29.01997,2.20037 4.04568,-1.60796 8.09136,-3.27234 12.21484,-4.62642 7.78015,-2.56709 11.17749,0 11.48869,8.99896 0.33714,9.39388 -5.18677,16.92592 -13.82274,16.61561 a 52.723502,57.35068 0 0 1 -19.60598,-4.96494 c -7.54675,-3.75191 -14.26362,-9.50672 -21.31762,-14.38703 z"
           id="path139"
           style="stroke-width:2.70479" /><path
           class="cls-1"
           d="m 532.70174,384.30376 c 0,-6.26259 0,-12.52519 -0.36307,-18.78778 a 125.20859,136.19729 0 0 0 -1.86724,-20.67784 c -1.65976,-8.46296 2.25625,-16.75667 10.14014,-18.22358 1.65976,-0.31031 5.4461,2.25679 5.4461,3.52623 0,7.78593 1.32263,16.67204 -1.63383,23.10389 a 49.87078,54.247594 0 0 0 -6.19819,26.5455 13.148458,14.302408 0 0 1 -1.63383,4.76747 z"
           id="path152"
           style="stroke-width:2.70479" /><path
           class="cls-1"
           d="m 432.98612,399.79098 c 0.1556,7.24994 -1.91911,9.11179 -7.18368,5.64198 a 224.63895,244.35396 0 0 1 -21.13608,-15.65649 c -1.63383,-1.35407 -2.87865,-6.46006 -1.9191,-7.67308 3.03426,-3.92117 7.00214,-9.25284 10.91815,-9.59136 5.86104,-0.50778 19.19104,20.11364 19.32071,27.27895 z"
           id="path158"
           style="stroke-width:2.70479" /><path
           class="cls-1"
           d="m 394.37063,353.32931 c 5.78324,0 13.35593,7.05247 11.35902,11.90457 -2.23031,5.47272 -7.20961,9.64778 -10.99595,14.38704 -5.18677,-5.24704 -10.97001,-9.92988 -15.14536,-15.96679 -1.89317,-2.70815 8.71377,-10.32482 14.78229,-10.32482 z"
           id="path169"
           style="stroke-width:2.70479" /><path
           class="cls-1"
           d="m 522.25041,342.49672 c 1.55603,2.39784 4.30501,4.68284 4.46062,7.19352 0.72614,11.50963 0.80395,23.10389 0.82988,34.64173 0,1.38228 -1.89317,2.82099 -2.90459,4.14685 -1.11516,-1.01556 -3.138,-1.94648 -3.2158,-3.01846 -0.82988,-14.10494 -1.37449,-28.20987 -2.02284,-42.17376 z"
           id="path180"
           style="stroke-width:2.70479" /><path
           class="cls-1"
           d="m 827.64734,754.92514 c -5.18677,4.17506 -7.78016,7.50382 -10.78848,8.46296 -4.07161,1.1284 -8.22103,-1.35407 -7.78015,-6.46006 0.20747,-2.82099 3.42326,-7.78593 5.18676,-7.78593 3.70854,-0.14105 7.23555,2.82099 13.38187,5.78303 z"
           id="path206"
           style="stroke-width:2.70479" /><path
           class="cls-1"
           d="m 818.28522,478.60939 c -3.70854,2.82099 -5.62764,5.04957 -7.78015,5.64198 -4.09755,0.90271 -6.87247,-1.83364 -6.09446,-6.29081 0.51868,-3.04666 2.95646,-5.64197 4.56436,-8.46296 z"
           id="path216"
           style="stroke-width:2.70479" /><path
           class="cls-1"
           d="m 371.60071,327.68654 c -3.11206,4.20327 -4.74589,10.88901 -10.60694,7.33456 a 7.1318068,7.7577162 0 0 1 -1.5301,-7.33456 c 3.50107,-6.46007 7.88389,-1.57976 12.13704,0 z"
           id="path221"
           style="stroke-width:2.70479" /><path
           class="cls-1"
           d="m 934.70224,314.56894 a 17.531278,19.069877 0 0 1 0.70021,6.65753 21.576957,23.470618 0 0 1 -3.81227,7.92698 c -0.33714,0.47957 -4.22722,-0.8463 -4.25315,-1.49512 a 27.541741,29.958889 0 0 1 0.77801,-9.22463 29.642382,32.243889 0 0 1 2.87866,-6.23439 z"
           id="path227"
           style="stroke-width:2.70479" /><path
           class="cls-1"
           d="m 807.98948,488.6239 c 2.59339,4.37253 5.18677,6.71395 4.79777,8.18086 -0.64835,2.53889 -3.11207,4.51358 -4.79777,6.74216 -1.21889,-1.63617 -3.4492,-3.30055 -3.42326,-4.90852 0.0519,-2.53888 1.6079,-5.04956 3.42326,-10.0145 z"
           id="path231"
           style="stroke-width:2.70479" /><path
           class="cls-1"
           d="m 612.83732,439.2566 h 8.24696 c 0,0.67704 0,1.35407 0.18154,2.03111 l -8.2729,0.76167 z"
           id="path260"
           style="stroke-width:2.70479" /><path
           class="cls-1"
           d="m 640.92367,513.78711 a 48.729691,53.006359 0 0 1 -5.03117,5.95228 c -0.20747,0.19747 -2.17844,-1.91827 -3.31953,-2.96203 a 55.524357,60.397347 0 0 1 4.9015,-5.4163 c 0.2334,-0.22568 1.73757,1.18481 3.4492,2.42605 z"
           id="path262"
           style="stroke-width:2.70479" /><path
           class="cls-1"
           d="m 370.92643,318.03876 h -14.73042 v -0.64883 h 14.73042 z"
           id="path271"
           style="stroke-width:2.70479" /><path
           class="cls-1"
           d="m 369.57787,309.66042 h -14.10801 v -0.73345 l 14.98976,-0.93093 z"
           id="path272"
           style="stroke-width:2.70479" /><path
           class="cls-1"
           d="m 775.02757,802.76909 c -0.90768,-1.55154 -3.47513,-4.06222 -3.83821,-6.91142 -0.57054,-4.54179 9.31025,-14.58451 12.96692,-13.03296 a 14.963827,16.277099 0 0 1 7.20961,8.46296 c 1.42636,3.55444 -8.6619,11.31216 -16.33832,11.48142 z"
           id="path275"
           style="stroke-width:2.70479" /></g></g></g></svg>
